<svg version="1.1" id="Layer_1" xmlns="http://www.w3.org/2000/svg" xmlns:xlink="http://www.w3.org/1999/xlink" x="0px" y="0px"
	 width="100%" viewBox="0 0 512 512" enable-background="new 0 0 512 512" xml:space="preserve">
<path fill="#A4C2F4" opacity="1.000000" stroke="none" 
	d="
M0.999999,259.000000 
	C1.000000,256.629456 1.000000,254.258881 1.262542,251.768982 
	C2.536968,250.401886 3.740016,249.264023 4.530636,247.889008 
	C11.121442,236.426544 17.562990,224.877975 24.189959,213.436691 
	C36.333538,192.471130 48.633598,171.596100 60.752899,150.616592 
	C70.041229,134.537735 79.080307,118.314957 88.359375,102.230675 
	C100.390266,81.376396 112.603088,60.626896 124.585022,39.744743 
	C126.075935,37.146362 127.597557,35.939613 130.683426,35.942234 
	C214.968109,36.013794 299.252899,35.979942 383.537415,36.128651 
	C385.365540,36.131870 387.972046,37.600758 388.896729,39.165318 
	C399.090881,56.413700 408.994843,73.833244 419.033630,91.173882 
	C432.634521,114.667572 446.339630,138.101074 459.898834,161.618729 
	C475.616882,188.880707 491.196136,216.222702 506.922241,243.480026 
	C508.657532,246.487701 510.960388,249.167908 513.000000,252.000000 
	C513.000000,254.041672 513.000000,256.083344 512.729248,258.237701 
	C512.063538,258.655640 511.524628,258.877960 511.294220,259.277954 
	C500.169373,278.591064 489.115723,297.945251 477.958496,317.239594 
	C464.364288,340.748352 450.602509,364.160492 437.064880,387.701660 
	C421.289673,415.133850 405.670380,442.655762 390.006744,470.152008 
	C388.122620,473.459473 385.901184,475.147125 381.577637,475.131042 
	C327.923798,474.931000 274.268982,475.000336 220.614426,475.000336 
	C190.787811,475.000336 160.961166,474.978851 131.134674,475.037262 
	C128.477295,475.042480 126.750206,474.589508 125.241356,471.904449 
	C117.332451,457.830505 109.105629,443.935272 100.995651,429.974213 
	C93.857964,417.686981 86.655891,405.436310 79.621208,393.090302 
	C74.912758,384.826904 70.447334,376.425018 66.230301,368.078583 
	C70.355415,371.032654 74.171692,373.934113 77.883080,376.964050 
	C94.925110,390.876984 114.049126,401.169525 134.254242,409.631165 
	C170.546265,424.829773 208.084503,432.516754 247.597198,429.100708 
	C269.766144,427.184113 290.575897,420.595612 310.745209,411.619537 
	C325.941833,404.856506 339.681549,395.931732 351.510559,383.946259 
	C358.716095,390.811584 365.570892,397.587585 372.534698,404.249695 
	C378.721832,410.168793 386.251648,411.624664 394.218353,409.387024 
	C410.367615,404.851196 415.510437,385.173279 403.764496,373.168396 
	C393.548340,362.727081 383.111755,352.501404 373.063538,341.967346 
	C379.571228,328.328461 386.056427,315.019073 391.939758,301.448730 
	C400.077087,282.679504 407.342682,263.524963 415.752808,244.883392 
	C424.817322,224.791412 439.686523,208.632263 453.575134,191.856033 
	C457.697998,186.876007 461.385376,181.535431 465.272278,176.360046 
	C464.805389,175.764526 464.338470,175.169022 463.871582,174.573517 
	C460.944611,175.372620 457.807556,175.741913 455.129608,177.050659 
	C446.770691,181.135818 438.316864,185.135864 430.388428,189.970261 
	C413.701233,200.145370 397.686188,211.403183 386.791779,228.087112 
	C378.525116,240.746826 371.332520,254.103012 363.454956,267.023041 
	C355.064209,280.784637 346.429840,294.397675 337.591553,307.951599 
	C330.772430,301.301422 324.263580,294.775177 317.957062,287.954590 
	C324.074738,277.843109 330.473602,268.280243 335.799103,258.152985 
	C345.242615,240.194794 353.838623,221.792709 363.156738,203.766327 
	C371.691864,187.254593 383.133301,173.229111 401.199493,166.644730 
	C414.440826,161.818817 428.105743,158.153641 441.591125,154.001144 
	C443.016083,153.562347 444.516113,153.372787 445.957916,152.981430 
	C447.164215,152.654022 448.336273,152.200516 449.523499,151.802856 
	C428.433472,150.348495 407.821167,152.317535 387.418671,156.709030 
	C368.202911,160.845093 350.168274,167.761337 333.841858,178.872559 
	C329.736359,169.105927 325.823700,159.668228 322.235107,150.081512 
	C329.183044,146.489761 335.523071,142.242172 342.494049,139.783798 
	C354.392700,135.587662 366.633362,132.314423 378.830597,129.025162 
	C391.033966,125.734245 403.390808,123.015236 415.614349,119.794846 
	C419.445984,118.785370 423.729675,118.004860 426.507355,112.422615 
	C421.499969,111.520889 417.219360,110.073112 412.948547,110.101318 
	C396.807373,110.207954 380.653900,110.491295 364.535980,111.314148 
	C354.930115,111.804550 345.177551,112.557953 335.860016,114.756927 
	C324.450012,117.449738 313.425964,121.778038 301.960083,125.167068 
	C280.760162,104.775009 256.026367,92.269676 226.981308,89.898270 
	C175.767380,85.716843 135.624908,105.494766 108.333832,148.902527 
	C88.965988,179.707977 86.441963,213.385117 96.410927,248.100983 
	C85.061470,246.934937 74.152443,245.800339 63.250645,244.600082 
	C50.199009,243.163086 37.165405,241.546890 24.097025,240.288391 
	C20.853943,239.976074 17.506907,240.743225 14.207654,241.014206 
	C14.074944,241.678848 13.942236,242.343475 13.809526,243.008118 
	C17.086138,245.091156 20.190941,247.532349 23.666920,249.199768 
	C48.334557,261.032562 74.068527,270.075958 100.226997,277.949280 
	C104.499260,279.235138 108.937439,279.969849 113.557892,281.154297 
	C123.967003,295.378601 136.795181,306.511292 150.772873,315.916809 
	C146.706009,315.515808 143.018066,315.418976 139.462967,314.681671 
	C112.492882,309.088501 85.557556,303.327789 58.591232,297.716217 
	C50.634590,296.060455 42.638119,294.560211 34.613853,293.276550 
	C28.107964,292.235809 26.189171,293.717194 25.639307,298.982056 
	C18.870731,287.479431 12.485452,276.104279 5.913886,264.837708 
	C4.651185,262.672943 2.656821,260.934906 0.999999,259.000000 
z"/>
<path fill="#000000" opacity="1.000000" stroke="none" 
	d="
M65.873169,368.085114 
	C70.447334,376.425018 74.912758,384.826904 79.621208,393.090302 
	C86.655891,405.436310 93.857964,417.686981 100.995651,429.974213 
	C109.105629,443.935272 117.332451,457.830505 125.241356,471.904449 
	C126.750206,474.589508 128.477295,475.042480 131.134674,475.037262 
	C160.961166,474.978851 190.787811,475.000336 220.614426,475.000336 
	C274.268982,475.000336 327.923798,474.931000 381.577637,475.131042 
	C385.901184,475.147125 388.122620,473.459473 390.006744,470.152008 
	C405.670380,442.655762 421.289673,415.133850 437.064880,387.701660 
	C450.602509,364.160492 464.364288,340.748352 477.958496,317.239594 
	C489.115723,297.945251 500.169373,278.591064 511.294220,259.277954 
	C511.524628,258.877960 512.063538,258.655640 512.729248,258.675201 
	C513.000000,343.630341 513.000000,428.260651 513.000000,512.945496 
	C342.442932,512.945496 171.885834,512.945496 1.000000,512.945496 
	C1.000000,428.646057 1.000000,344.291687 0.999999,259.468658 
	C2.656821,260.934906 4.651185,262.672943 5.913886,264.837708 
	C12.485452,276.104279 18.870731,287.479431 25.654217,298.942505 
	C25.987574,299.068207 25.909786,299.034637 25.954199,299.400818 
	C37.650139,319.883484 49.301666,339.999969 60.969574,360.452209 
	C61.909885,362.191803 62.833817,363.595673 63.867050,365.321381 
	C64.632538,366.473602 65.288719,367.303955 65.943413,368.098145 
	C65.941917,368.061981 65.873177,368.085114 65.873169,368.085114 
z"/>
<path fill="#000000" opacity="1.000000" stroke="none" 
	d="
M513.000000,251.531342 
	C510.960388,249.167908 508.657532,246.487701 506.922241,243.480026 
	C491.196136,216.222702 475.616882,188.880707 459.898834,161.618729 
	C446.339630,138.101074 432.634521,114.667572 419.033630,91.173882 
	C408.994843,73.833244 399.090881,56.413700 388.896729,39.165318 
	C387.972046,37.600758 385.365540,36.131870 383.537415,36.128651 
	C299.252899,35.979942 214.968109,36.013794 130.683426,35.942234 
	C127.597557,35.939613 126.075935,37.146362 124.585022,39.744743 
	C112.603088,60.626896 100.390266,81.376396 88.359375,102.230675 
	C79.080307,118.314957 70.041229,134.537735 60.752899,150.616592 
	C48.633598,171.596100 36.333538,192.471130 24.189959,213.436691 
	C17.562990,224.877975 11.121442,236.426544 4.530636,247.889008 
	C3.740016,249.264023 2.536968,250.401886 1.262542,251.324829 
	C1.000000,167.702637 1.000000,84.405289 1.000000,1.053965 
	C171.556992,1.053965 342.114014,1.053965 513.000000,1.053965 
	C513.000000,84.353943 513.000000,167.708313 513.000000,251.531342 
z"/>
<path fill="#010102" opacity="1.000000" stroke="none" 
	d="
M151.213318,315.924316 
	C136.795181,306.511292 123.967003,295.378601 113.453049,280.808472 
	C107.677689,269.546173 102.266129,258.824768 96.854561,248.103333 
	C86.441963,213.385117 88.965988,179.707977 108.333832,148.902527 
	C135.624908,105.494766 175.767380,85.716843 226.981308,89.898270 
	C256.026367,92.269676 280.760162,104.775009 302.070923,125.424042 
	C308.941467,134.018951 315.426239,142.124756 321.911041,150.230545 
	C325.823700,159.668228 329.736359,169.105927 333.814636,179.252258 
	C343.496643,217.816223 335.919556,252.343048 313.250397,284.211853 
	C314.858063,285.652740 316.306396,286.950836 317.754730,288.248932 
	C324.263580,294.775177 330.772430,301.301422 337.727966,308.257080 
	C349.707306,319.851166 361.239960,331.015808 372.772614,342.180420 
	C383.111755,352.501404 393.548340,362.727081 403.764496,373.168396 
	C415.510437,385.173279 410.367615,404.851196 394.218353,409.387024 
	C386.251648,411.624664 378.721832,410.168793 372.534698,404.249695 
	C365.570892,397.587585 358.716095,390.811584 351.368683,383.646149 
	C337.962708,370.550476 325.001923,357.893799 311.853302,344.941833 
	C303.811432,337.089691 295.957367,329.532837 287.970734,321.661255 
	C285.637726,318.668884 283.437317,315.991272 281.438507,313.558990 
	C278.975616,314.918365 277.809509,315.545197 276.658997,316.199432 
	C248.589264,332.162079 218.635818,337.274536 187.272064,329.667694 
	C174.870895,326.659943 163.210831,320.596466 151.213318,315.924316 
M288.398590,195.932693 
	C285.609131,182.584671 279.831573,170.804337 269.837128,160.460144 
	C246.140900,136.107178 210.234772,130.069397 179.563492,145.280258 
	C140.645279,164.580994 126.893692,214.878860 151.113083,250.738815 
	C158.932678,262.220551 168.617401,271.547455 182.073029,277.671783 
	C213.777039,292.143799 249.148239,284.967590 271.772522,258.695740 
	C287.098816,240.898483 293.311188,220.192795 288.398590,195.932693 
z"/>
<path fill="#6D9EEB" opacity="1.000000" stroke="none" 
	d="
M312.041138,345.237122 
	C325.001923,357.893799 337.962708,370.550476 351.065369,383.507263 
	C339.681549,395.931732 325.941833,404.856506 310.745209,411.619537 
	C290.575897,420.595612 269.766144,427.184113 247.597198,429.100708 
	C208.084503,432.516754 170.546265,424.829773 134.254242,409.631165 
	C114.049126,401.169525 94.925110,390.876984 77.883080,376.964050 
	C74.171692,373.934113 70.355415,371.032654 66.230309,368.078583 
	C65.873177,368.085114 65.941917,368.061981 65.948524,367.750549 
	C65.222672,366.625885 64.490204,365.812714 63.757748,364.999512 
	C62.833817,363.595673 61.909885,362.191803 61.004890,360.070251 
	C62.778461,358.330902 64.453056,356.695648 66.309341,356.453583 
	C68.321114,356.191193 70.561096,357.049194 72.600349,357.724304 
	C92.496696,364.310822 112.328659,371.094635 132.265671,377.554688 
	C150.695969,383.526520 169.528198,387.998596 189.032761,386.795593 
	C204.078339,385.867645 219.141403,384.223358 234.017731,381.799286 
	C253.434189,378.635376 272.422028,373.510284 289.863922,364.006927 
	C298.489105,359.307465 306.634613,353.836700 312.041138,345.237122 
z"/>
<path fill="#4B86E8" opacity="1.000000" stroke="none" 
	d="
M150.772873,315.916809 
	C163.210831,320.596466 174.870895,326.659943 187.272064,329.667694 
	C218.635818,337.274536 248.589264,332.162079 276.658997,316.199432 
	C277.809509,315.545197 278.975616,314.918365 281.438507,313.558990 
	C283.437317,315.991272 285.637726,318.668884 287.789978,321.947662 
	C277.384064,330.276611 267.805054,339.472992 256.522125,345.456055 
	C223.045990,363.207733 187.057281,363.482941 151.238342,355.309967 
	C113.869171,346.783264 79.820320,329.267456 46.044563,311.609528 
	C39.052616,307.954163 32.607128,303.253540 25.909784,299.034637 
	C25.909786,299.034637 25.987574,299.068207 25.972664,299.107758 
	C26.189171,293.717194 28.107964,292.235809 34.613853,293.276550 
	C42.638119,294.560211 50.634590,296.060455 58.591232,297.716217 
	C85.557556,303.327789 112.492882,309.088501 139.462967,314.681671 
	C143.018066,315.418976 146.706009,315.515808 150.772873,315.916809 
z"/>
<path fill="#6D9EEB" opacity="1.000000" stroke="none" 
	d="
M373.063538,341.967346 
	C361.239960,331.015808 349.707306,319.851166 338.038239,308.381042 
	C346.429840,294.397675 355.064209,280.784637 363.454956,267.023041 
	C371.332520,254.103012 378.525116,240.746826 386.791779,228.087112 
	C397.686188,211.403183 413.701233,200.145370 430.388428,189.970261 
	C438.316864,185.135864 446.770691,181.135818 455.129608,177.050659 
	C457.807556,175.741913 460.944611,175.372620 463.871582,174.573517 
	C464.338470,175.169022 464.805389,175.764526 465.272278,176.360046 
	C461.385376,181.535431 457.697998,186.876007 453.575134,191.856033 
	C439.686523,208.632263 424.817322,224.791412 415.752808,244.883392 
	C407.342682,263.524963 400.077087,282.679504 391.939758,301.448730 
	C386.056427,315.019073 379.571228,328.328461 373.063538,341.967346 
z"/>
<path fill="#4B86E7" opacity="1.000000" stroke="none" 
	d="
M317.957062,287.954590 
	C316.306396,286.950836 314.858063,285.652740 313.250397,284.211853 
	C335.919556,252.343048 343.496643,217.816223 334.007507,179.581177 
	C350.168274,167.761337 368.202911,160.845093 387.418671,156.709030 
	C407.821167,152.317535 428.433472,150.348495 449.523499,151.802856 
	C448.336273,152.200516 447.164215,152.654022 445.957916,152.981430 
	C444.516113,153.372787 443.016083,153.562347 441.591125,154.001144 
	C428.105743,158.153641 414.440826,161.818817 401.199493,166.644730 
	C383.133301,173.229111 371.691864,187.254593 363.156738,203.766327 
	C353.838623,221.792709 345.242615,240.194794 335.799103,258.152985 
	C330.473602,268.280243 324.074738,277.843109 317.957062,287.954590 
z"/>
<path fill="#3D79D8" opacity="1.000000" stroke="none" 
	d="
M322.235107,150.081512 
	C315.426239,142.124756 308.941467,134.018951 302.345856,125.656181 
	C313.425964,121.778038 324.450012,117.449738 335.860016,114.756927 
	C345.177551,112.557953 354.930115,111.804550 364.535980,111.314148 
	C380.653900,110.491295 396.807373,110.207954 412.948547,110.101318 
	C417.219360,110.073112 421.499969,111.520889 426.507355,112.422615 
	C423.729675,118.004860 419.445984,118.785370 415.614349,119.794846 
	C403.390808,123.015236 391.033966,125.734245 378.830597,129.025162 
	C366.633362,132.314423 354.392700,135.587662 342.494049,139.783798 
	C335.523071,142.242172 329.183044,146.489761 322.235107,150.081512 
z"/>
<path fill="#3D79D8" opacity="1.000000" stroke="none" 
	d="
M96.410927,248.100983 
	C102.266129,258.824768 107.677689,269.546173 113.194092,280.613464 
	C108.937439,279.969849 104.499260,279.235138 100.226997,277.949280 
	C74.068527,270.075958 48.334557,261.032562 23.666920,249.199768 
	C20.190941,247.532349 17.086138,245.091156 13.809526,243.008118 
	C13.942236,242.343475 14.074944,241.678848 14.207654,241.014206 
	C17.506907,240.743225 20.853943,239.976074 24.097025,240.288391 
	C37.165405,241.546890 50.199009,243.163086 63.250645,244.600082 
	C74.152443,245.800339 85.061470,246.934937 96.410927,248.100983 
z"/>
<path fill="#A4C2F4" opacity="1.000000" stroke="none" 
	d="
M25.954197,299.400818 
	C32.607128,303.253540 39.052616,307.954163 46.044563,311.609528 
	C79.820320,329.267456 113.869171,346.783264 151.238342,355.309967 
	C187.057281,363.482941 223.045990,363.207733 256.522125,345.456055 
	C267.805054,339.472992 277.384064,330.276611 287.922546,322.262390 
	C295.957367,329.532837 303.811432,337.089691 311.853302,344.941833 
	C306.634613,353.836700 298.489105,359.307465 289.863922,364.006927 
	C272.422028,373.510284 253.434189,378.635376 234.017731,381.799286 
	C219.141403,384.223358 204.078339,385.867645 189.032761,386.795593 
	C169.528198,387.998596 150.695969,383.526520 132.265671,377.554688 
	C112.328659,371.094635 92.496696,364.310822 72.600349,357.724304 
	C70.561096,357.049194 68.321114,356.191193 66.309341,356.453583 
	C64.453056,356.695648 62.778461,358.330902 60.988514,359.734497 
	C49.301666,339.999969 37.650139,319.883484 25.954197,299.400818 
z"/>
<path fill="#A4C2F4" opacity="1.000000" stroke="none" 
	d="
M63.867050,365.321381 
	C64.490204,365.812714 65.222672,366.625885 65.950020,367.786682 
	C65.288719,367.303955 64.632538,366.473602 63.867050,365.321381 
z"/>
<path fill="#A3C1F3" opacity="1.000000" stroke="none" 
	d="
M150.907990,250.090744 
	C126.893692,214.878860 140.645279,164.580994 179.563492,145.280258 
	C210.234772,130.069397 246.140900,136.107178 269.818542,161.073059 
	C265.556732,168.051178 261.212891,174.351868 257.087616,180.792587 
	C238.191345,210.294998 211.822281,230.533676 179.284317,242.729187 
	C170.184204,246.139984 160.385971,247.688141 150.907990,250.090744 
z"/>
<path fill="#3D78D8" opacity="1.000000" stroke="none" 
	d="
M151.010529,250.414780 
	C160.385971,247.688141 170.184204,246.139984 179.284317,242.729187 
	C211.822281,230.533676 238.191345,210.294998 257.087616,180.792587 
	C261.212891,174.351868 265.556732,168.051178 269.959076,161.387421 
	C279.831573,170.804337 285.609131,182.584671 288.237183,196.682907 
	C280.860779,208.036499 273.896484,218.822739 266.343048,229.179291 
	C261.267578,236.138290 255.882065,243.032471 249.703506,248.989197 
	C239.511536,258.815216 226.329025,263.560577 213.132950,267.826233 
	C202.702301,271.197998 192.096817,274.028931 181.568985,277.100067 
	C168.617401,271.547455 158.932678,262.220551 151.010529,250.414780 
z"/>
<path fill="#A2C0F2" opacity="1.000000" stroke="none" 
	d="
M181.821014,277.385925 
	C192.096817,274.028931 202.702301,271.197998 213.132950,267.826233 
	C226.329025,263.560577 239.511536,258.815216 249.703506,248.989197 
	C255.882065,243.032471 261.267578,236.138290 266.343048,229.179291 
	C273.896484,218.822739 280.860779,208.036499 288.181274,197.083191 
	C293.311188,220.192795 287.098816,240.898483 271.772522,258.695740 
	C249.148239,284.967590 213.777039,292.143799 181.821014,277.385925 
z"/>
</svg>