<svg version="1.1" id="Layer_1" xmlns="http://www.w3.org/2000/svg" xmlns:xlink="http://www.w3.org/1999/xlink" x="0px" y="0px"
	 width="100%" viewBox="0 0 512 512" enable-background="new 0 0 512 512" xml:space="preserve">
<path fill="#FFD966" opacity="1.000000" stroke="none" 
	d="
M1.000000,259.000000 
	C1.000000,256.629456 1.000000,254.258881 1.281730,251.748260 
	C5.029615,246.169205 8.676563,240.835770 11.926261,235.270386 
	C19.986454,221.466568 27.825453,207.533829 35.827194,193.695587 
	C45.128983,177.609039 54.576488,161.606522 63.835903,145.495789 
	C72.126633,131.070465 80.161880,116.498207 88.464249,102.079681 
	C100.398033,81.354538 112.516228,60.735519 124.431534,39.999851 
	C125.976692,37.310886 127.538513,35.919701 130.898590,35.923565 
	C215.030212,36.020351 299.162018,35.977257 383.293457,36.139961 
	C385.220306,36.143684 387.934662,37.761341 388.943726,39.433556 
	C397.797943,54.106682 406.439667,68.910767 414.967865,83.777306 
	C430.720825,111.238289 446.287567,138.806122 462.056915,166.257614 
	C476.950439,192.184464 491.973724,218.037018 507.031494,243.868866 
	C508.715271,246.757462 510.996033,249.298050 513.000000,252.000000 
	C513.000000,254.041672 513.000000,256.083344 512.710083,258.258484 
	C510.619171,261.217682 508.740662,263.997437 507.030792,266.877350 
	C500.670166,277.590607 494.364960,288.336761 488.019104,298.652344 
	C487.525818,293.790741 484.594604,292.037842 478.509521,293.178253 
	C467.934906,295.160095 457.362701,297.201782 446.875946,299.596771 
	C418.622711,306.049408 390.496918,313.113464 361.577301,316.131104 
	C357.025360,316.606079 352.503662,317.370728 347.654510,317.886230 
	C336.322205,306.272308 325.303406,294.773621 313.993835,282.971436 
	C315.708618,280.492798 317.962463,277.234955 320.611816,273.996887 
	C329.756317,275.876862 338.485535,277.836670 347.258240,279.577332 
	C368.297089,283.751831 389.301178,285.270782 410.285400,278.992981 
	C437.866913,270.741425 465.021240,261.359619 491.015503,248.891312 
	C494.282776,247.324142 497.106659,244.832611 500.135986,242.769363 
	C499.948425,242.112625 499.760895,241.455887 499.573364,240.799164 
	C496.070435,240.603745 492.548859,240.086517 489.068909,240.288025 
	C483.790070,240.593674 478.539978,241.397461 473.277954,241.991852 
	C457.812408,243.738876 442.358246,245.595474 426.878143,247.201965 
	C413.375641,248.603226 399.866058,250.131531 386.319641,250.866440 
	C368.382019,251.839539 351.017395,248.093216 333.920013,242.550781 
	C338.120728,224.992508 339.235077,207.773712 336.180450,190.230881 
	C324.422150,122.702339 255.978256,76.829002 189.082901,91.583046 
	C172.463028,95.248627 157.331100,102.008301 142.619354,111.044373 
	C128.248016,110.674065 114.349052,110.175194 100.447739,110.098389 
	C96.192741,110.074875 91.596115,110.199982 87.114220,114.623077 
	C99.419975,121.879395 112.564606,123.299614 125.123283,126.442215 
	C118.450623,135.544922 111.901634,144.330368 104.903931,153.080063 
	C91.108032,152.128204 77.760834,151.212082 64.413635,150.295975 
	C64.367943,150.837662 64.322258,151.379349 64.276573,151.921036 
	C76.638908,155.029221 89.001244,158.137405 101.287292,161.609802 
	C98.088905,172.989166 94.966805,184.004288 91.543335,194.872772 
	C80.186508,188.683365 69.192543,182.522858 58.026955,176.690933 
	C55.609192,175.428101 52.574680,175.346069 49.824234,174.720169 
	C49.492111,175.250229 49.159985,175.780289 48.827858,176.310349 
	C63.557873,195.578003 78.287888,214.845657 93.243958,234.418060 
	C96.986412,244.805954 99.971550,255.118759 104.197708,264.895111 
	C107.239861,271.932526 111.936562,278.254700 115.923645,285.285675 
	C116.295349,286.781555 116.533958,287.933746 116.997391,288.987000 
	C126.782684,311.226776 136.560364,333.470062 146.410614,355.681122 
	C152.962357,370.454437 160.941376,384.478790 174.139114,394.218292 
	C204.136780,416.355682 238.223373,427.671448 275.279510,429.867432 
	C294.455170,431.003784 313.652283,429.302704 332.217590,424.665039 
	C348.421783,420.617126 364.085327,414.405151 380.403748,409.150635 
	C393.551086,412.739441 403.814819,407.629944 409.388000,394.834015 
	C409.720245,394.419281 409.864746,394.155548 409.887115,393.925537 
	C409.801819,393.979431 409.690308,393.811249 410.071228,393.907928 
	C411.240051,393.798248 412.170593,393.794281 412.794189,393.354828 
	C421.312592,387.351990 429.800842,381.306030 438.268738,375.232025 
	C441.559113,372.871857 444.780029,370.414886 448.015320,368.374634 
	C445.796082,372.866577 443.701996,377.048004 441.373169,381.094360 
	C431.945648,397.474670 422.469818,413.827332 412.965546,430.163269 
	C404.836487,444.135468 396.543365,458.013672 388.574402,472.076019 
	C387.162598,474.567413 385.629120,475.041290 383.114838,475.039886 
	C298.979797,474.991974 214.844696,475.019135 130.709885,474.870850 
	C128.935730,474.867737 126.422218,473.375946 125.506065,471.834320 
	C114.859306,453.918732 104.454201,435.859558 93.984344,417.838837 
	C80.343987,394.361023 66.637131,370.921570 53.079071,347.396393 
	C36.543217,318.704254 20.142115,289.934479 3.622763,261.232819 
	C3.083452,260.295776 1.889039,259.735748 1.000000,259.000000 
z"/>
<path fill="#000000" opacity="1.000000" stroke="none" 
	d="
M1.000000,259.468658 
	C1.889039,259.735748 3.083452,260.295776 3.622763,261.232819 
	C20.142115,289.934479 36.543217,318.704254 53.079071,347.396393 
	C66.637131,370.921570 80.343987,394.361023 93.984344,417.838837 
	C104.454201,435.859558 114.859306,453.918732 125.506065,471.834320 
	C126.422218,473.375946 128.935730,474.867737 130.709885,474.870850 
	C214.844696,475.019135 298.979797,474.991974 383.114838,475.039886 
	C385.629120,475.041290 387.162598,474.567413 388.574402,472.076019 
	C396.543365,458.013672 404.836487,444.135468 412.965546,430.163269 
	C422.469818,413.827332 431.945648,397.474670 441.373169,381.094360 
	C443.701996,377.048004 445.796082,372.866577 447.996002,368.372253 
	C447.993927,367.997223 447.999023,368.035797 448.271393,367.984802 
	C448.705963,367.620880 448.868134,367.307983 449.011108,366.993896 
	C448.991913,366.992645 448.998932,367.030487 449.322876,366.924561 
	C449.705109,366.163605 449.763428,365.508606 449.982788,364.562317 
	C451.108887,362.886871 452.073975,361.502716 453.363953,359.961853 
	C460.780914,347.382477 467.900574,334.975494 474.954895,322.531464 
	C479.379791,314.725861 483.706512,306.864655 488.047852,299.020752 
	C488.018433,299.013092 488.038971,299.070618 488.038940,299.070618 
	C494.364960,288.336761 500.670166,277.590607 507.030792,266.877350 
	C508.740662,263.997437 510.619171,261.217682 512.710083,258.695984 
	C513.000000,343.630341 513.000000,428.260651 513.000000,512.945496 
	C342.442932,512.945496 171.885834,512.945496 1.000000,512.945496 
	C1.000000,428.646057 1.000000,344.291687 1.000000,259.468658 
z"/>
<path fill="#000000" opacity="1.000000" stroke="none" 
	d="
M513.000000,251.531342 
	C510.996033,249.298050 508.715271,246.757462 507.031494,243.868866 
	C491.973724,218.037018 476.950439,192.184464 462.056915,166.257614 
	C446.287567,138.806122 430.720825,111.238289 414.967865,83.777306 
	C406.439667,68.910767 397.797943,54.106682 388.943726,39.433556 
	C387.934662,37.761341 385.220306,36.143684 383.293457,36.139961 
	C299.162018,35.977257 215.030212,36.020351 130.898590,35.923565 
	C127.538513,35.919701 125.976692,37.310886 124.431534,39.999851 
	C112.516228,60.735519 100.398033,81.354538 88.464249,102.079681 
	C80.161880,116.498207 72.126633,131.070465 63.835903,145.495789 
	C54.576488,161.606522 45.128983,177.609039 35.827194,193.695587 
	C27.825453,207.533829 19.986454,221.466568 11.926261,235.270386 
	C8.676563,240.835770 5.029615,246.169205 1.281730,251.304108 
	C1.000000,167.702637 1.000000,84.405289 1.000000,1.053965 
	C171.556992,1.053965 342.114014,1.053965 513.000000,1.053965 
	C513.000000,84.353943 513.000000,167.708313 513.000000,251.531342 
z"/>
<path fill="#020101" opacity="1.000000" stroke="none" 
	d="
M91.844696,195.019424 
	C94.966805,184.004288 98.088905,172.989166 101.542671,161.371002 
	C103.033768,158.217255 104.193207,155.666534 105.352646,153.115814 
	C111.901634,144.330368 118.450623,135.544922 125.436485,126.329605 
	C131.612518,120.959190 137.351669,116.018661 143.090836,111.078125 
	C157.331100,102.008301 172.463028,95.248627 189.082901,91.583046 
	C255.978256,76.829002 324.422150,122.702339 336.180450,190.230881 
	C339.235077,207.773712 338.120728,224.992508 333.654358,242.809677 
	C329.004211,253.641068 324.610260,263.809082 320.216339,273.977112 
	C317.962463,277.234955 315.708618,280.492798 313.993835,282.971436 
	C325.303406,294.773621 336.322205,306.272308 347.783630,318.198029 
	C359.084167,329.128052 369.942139,339.631073 380.935059,350.441223 
	C388.069000,357.509155 395.067963,364.269989 402.180817,371.343811 
	C409.108551,377.589935 410.893585,385.201813 409.690308,393.811249 
	C409.690308,393.811249 409.801819,393.979431 409.597443,393.940002 
	C409.341064,394.268768 409.289062,394.636963 409.237030,395.005188 
	C403.814819,407.629944 393.551086,412.739441 380.088470,408.994995 
	C376.312622,406.578918 373.057587,404.551361 370.266571,402.013489 
	C364.123810,396.427887 358.215424,390.584534 352.077454,384.537994 
	C343.306122,375.830475 334.668732,367.431366 325.896484,358.721558 
	C310.677032,343.649719 295.592407,328.888641 280.379242,314.001740 
	C266.657135,322.610657 251.825592,328.100800 235.673035,331.166046 
	C229.863449,331.722809 224.454330,332.902100 219.068283,332.804749 
	C209.705933,332.635468 200.357834,331.677734 190.653137,330.887115 
	C164.381805,325.076996 142.118210,312.906189 123.912666,293.500519 
	C121.230431,290.641479 118.567230,287.764587 115.895233,284.895935 
	C111.936562,278.254700 107.239861,271.932526 104.197708,264.895111 
	C99.971550,255.118759 96.986412,244.805954 93.276176,233.978027 
	C92.669792,220.495331 92.257240,207.757370 91.844696,195.019424 
M190.017075,280.904419 
	C190.017075,280.904419 190.492096,281.002747 190.492096,281.002747 
	C190.492096,281.002747 190.971237,280.927246 191.611755,281.358887 
	C196.607361,282.429779 201.555099,283.970917 206.607391,284.485321 
	C223.191101,286.173859 238.834915,283.156891 253.752808,273.985657 
	C260.202271,268.320648 266.651733,262.655640 273.700592,256.695953 
	C282.953796,244.691910 288.690277,231.308136 289.883423,215.132156 
	C290.639160,201.723419 288.196564,188.899628 281.755676,177.131027 
	C269.662384,155.034576 251.138489,141.829178 225.234879,137.913574 
	C210.518127,135.693008 196.389923,137.510910 182.245377,144.101913 
	C171.426697,149.227646 161.869659,155.937973 154.286285,166.199081 
	C150.255844,174.140839 146.225403,182.082581 141.930557,190.765503 
	C130.728485,227.346298 153.116821,269.572632 189.598663,280.532471 
	C189.598663,280.532471 189.657181,280.577271 190.017075,280.904419 
z"/>
<path fill="#FFF2CB" opacity="1.000000" stroke="none" 
	d="
M115.923645,285.285675 
	C118.567230,287.764587 121.230431,290.641479 123.912666,293.500519 
	C142.118210,312.906189 164.381805,325.076996 190.788300,331.197693 
	C202.808334,350.755341 219.031281,363.921021 240.173126,371.266998 
	C260.810669,378.437744 281.899811,383.175781 303.664703,385.163788 
	C319.879242,386.644775 336.048828,388.237671 352.211395,384.846375 
	C358.215424,390.584534 364.123810,396.427887 370.266571,402.013489 
	C373.057587,404.551361 376.312622,406.578918 379.672485,408.993652 
	C364.085327,414.405151 348.421783,420.617126 332.217590,424.665039 
	C313.652283,429.302704 294.455170,431.003784 275.279510,429.867432 
	C238.223373,427.671448 204.136780,416.355682 174.139114,394.218292 
	C160.941376,384.478790 152.962357,370.454437 146.410614,355.681122 
	C136.560364,333.470062 126.782684,311.226776 116.997391,288.987000 
	C116.533958,287.933746 116.295349,286.781555 115.923645,285.285675 
z"/>
<path fill="#F1C232" opacity="1.000000" stroke="none" 
	d="
M320.611816,273.996887 
	C324.610260,263.809082 329.004211,253.641068 333.663818,243.214172 
	C351.017395,248.093216 368.382019,251.839539 386.319641,250.866440 
	C399.866058,250.131531 413.375641,248.603226 426.878143,247.201965 
	C442.358246,245.595474 457.812408,243.738876 473.277954,241.991852 
	C478.539978,241.397461 483.790070,240.593674 489.068909,240.288025 
	C492.548859,240.086517 496.070435,240.603745 499.573364,240.799164 
	C499.760895,241.455887 499.948425,242.112625 500.135986,242.769363 
	C497.106659,244.832611 494.282776,247.324142 491.015503,248.891312 
	C465.021240,261.359619 437.866913,270.741425 410.285400,278.992981 
	C389.301178,285.270782 368.297089,283.751831 347.258240,279.577332 
	C338.485535,277.836670 329.756317,275.876862 320.611816,273.996887 
z"/>
<path fill="#FFE498" opacity="1.000000" stroke="none" 
	d="
M380.800110,350.134094 
	C369.942139,339.631073 359.084167,329.128052 348.097107,318.313232 
	C352.503662,317.370728 357.025360,316.606079 361.577301,316.131104 
	C390.496918,313.113464 418.622711,306.049408 446.875946,299.596771 
	C457.362701,297.201782 467.934906,295.160095 478.509521,293.178253 
	C484.594604,292.037842 487.525818,293.790741 488.019104,298.652344 
	C488.038971,299.070618 488.018433,299.013092 487.695099,299.040833 
	C478.220764,304.723969 469.394653,311.015930 459.845001,315.890320 
	C444.303223,323.823242 428.414948,331.118256 412.427826,338.123260 
	C402.111633,342.643463 391.357819,346.164978 380.800110,350.134094 
z"/>
<path fill="#FEF1CA" opacity="1.000000" stroke="none" 
	d="
M91.543335,194.872772 
	C92.257240,207.757370 92.669792,220.495331 93.050125,233.673294 
	C78.287888,214.845657 63.557873,195.578003 48.827858,176.310349 
	C49.159985,175.780289 49.492111,175.250229 49.824234,174.720169 
	C52.574680,175.346069 55.609192,175.428101 58.026955,176.690933 
	C69.192543,182.522858 80.186508,188.683365 91.543335,194.872772 
z"/>
<path fill="#FEF1CA" opacity="1.000000" stroke="none" 
	d="
M410.071228,393.907928 
	C410.893585,385.201813 409.108551,377.589935 402.514893,371.201599 
	C403.972992,370.279205 405.194397,369.760864 406.451538,369.352570 
	C419.677643,365.056763 432.883240,360.694366 446.159332,356.558441 
	C449.241272,355.598297 452.688110,355.199615 453.039001,360.118530 
	C452.073975,361.502716 451.108887,362.886871 449.747314,364.771729 
	C449.233490,365.858429 449.116180,366.444458 448.998901,367.030487 
	C448.998932,367.030487 448.991913,366.992645 448.728516,367.029541 
	C448.309784,367.389557 448.154419,367.712677 447.999023,368.035797 
	C447.999023,368.035797 447.993927,367.997223 448.013245,367.999603 
	C444.780029,370.414886 441.559113,372.871857 438.268738,375.232025 
	C429.800842,381.306030 421.312592,387.351990 412.794189,393.354828 
	C412.170593,393.794281 411.240051,393.798248 410.071228,393.907928 
z"/>
<path fill="#F0C133" opacity="1.000000" stroke="none" 
	d="
M142.619354,111.044373 
	C137.351669,116.018661 131.612518,120.959190 125.560150,126.012337 
	C112.564606,123.299614 99.419975,121.879395 87.114220,114.623077 
	C91.596115,110.199982 96.192741,110.074875 100.447739,110.098389 
	C114.349052,110.175194 128.248016,110.674065 142.619354,111.044373 
z"/>
<path fill="#FEE497" opacity="1.000000" stroke="none" 
	d="
M104.903946,153.080063 
	C104.193207,155.666534 103.033768,158.217255 101.618958,161.006775 
	C89.001244,158.137405 76.638908,155.029221 64.276573,151.921036 
	C64.322258,151.379349 64.367943,150.837662 64.413635,150.295975 
	C77.760834,151.212082 91.108032,152.128204 104.903946,153.080063 
z"/>
<path fill="#FEF1CA" opacity="1.000000" stroke="none" 
	d="
M409.388000,394.834015 
	C409.289062,394.636963 409.341064,394.268768 409.682739,393.886108 
	C409.864746,394.155548 409.720245,394.419281 409.388000,394.834015 
z"/>
<path fill="#FFD966" opacity="1.000000" stroke="none" 
	d="
M453.363922,359.961823 
	C452.688110,355.199615 449.241272,355.598297 446.159332,356.558441 
	C432.883240,360.694366 419.677643,365.056763 406.451538,369.352570 
	C405.194397,369.760864 403.972992,370.279205 402.400940,370.888641 
	C395.067963,364.269989 388.069000,357.509155 380.935059,350.441223 
	C391.357819,346.164978 402.111633,342.643463 412.427826,338.123260 
	C428.414948,331.118256 444.303223,323.823242 459.845001,315.890320 
	C469.394653,311.015930 478.220764,304.723969 487.724518,299.048462 
	C483.706512,306.864655 479.379791,314.725861 474.954895,322.531464 
	C467.900574,334.975494 460.780914,347.382477 453.363922,359.961823 
z"/>
<path fill="#FFD966" opacity="1.000000" stroke="none" 
	d="
M449.322845,366.924561 
	C449.116180,366.444458 449.233490,365.858429 449.586243,365.062988 
	C449.763428,365.508606 449.705109,366.163605 449.322845,366.924561 
z"/>
<path fill="#FFD966" opacity="1.000000" stroke="none" 
	d="
M448.271423,367.984802 
	C448.154419,367.712677 448.309784,367.389557 448.747742,367.030762 
	C448.868134,367.307983 448.705963,367.620880 448.271423,367.984802 
z"/>
<path fill="#FFE599" opacity="1.000000" stroke="none" 
	d="
M253.065033,274.084229 
	C238.834915,283.156891 223.191101,286.173859 206.607391,284.485321 
	C201.555099,283.970917 196.607361,282.429779 191.118378,280.955322 
	C190.302399,280.560272 189.979797,280.568756 189.657181,280.577271 
	C189.657181,280.577271 189.598663,280.532471 189.610382,280.160065 
	C189.095474,278.572937 188.633713,277.325012 188.032242,276.148529 
	C181.080658,262.551086 174.279999,248.872681 167.095215,235.399231 
	C158.977829,220.176834 150.510254,205.141190 142.194962,190.024323 
	C146.225403,182.082581 150.255844,174.140839 154.968658,166.077744 
	C157.196411,166.527618 158.772430,167.027985 160.282547,167.680786 
	C178.939529,175.745773 192.126007,190.205536 203.866623,205.996765 
	C220.571747,228.465347 236.693848,251.367386 253.065033,274.084229 
z"/>
<path fill="#F0C232" opacity="1.000000" stroke="none" 
	d="
M182.953491,144.075531 
	C196.389923,137.510910 210.518127,135.693008 225.802979,138.313293 
	C232.453140,146.599884 238.704315,154.363190 244.579132,162.401535 
	C254.280212,175.675278 263.328491,189.449509 273.493256,202.349899 
	C277.775787,207.784988 284.198181,211.533966 289.647858,216.049393 
	C288.690277,231.308136 282.953796,244.691910 273.306702,256.516785 
	C268.283569,252.369705 262.694885,249.102249 259.195557,244.309326 
	C245.917160,226.122330 232.727341,207.815918 220.636475,188.833084 
	C210.006302,172.143555 200.575150,154.752853 182.953491,144.075531 
z"/>
<path fill="#FFD967" opacity="1.000000" stroke="none" 
	d="
M352.077454,384.537994 
	C336.048828,388.237671 319.879242,386.644775 303.664703,385.163788 
	C281.899811,383.175781 260.810669,378.437744 240.173126,371.266998 
	C219.031281,363.921021 202.808334,350.755341 191.138931,331.361115 
	C200.357834,331.677734 209.705933,332.635468 219.068283,332.804749 
	C224.454330,332.902100 229.863449,331.722809 235.893982,331.394226 
	C241.070343,334.975372 245.483902,338.480927 250.181885,341.551270 
	C271.953156,355.779816 296.528809,359.288300 321.803589,359.935547 
	C323.204224,359.971466 324.621704,359.348541 326.031342,359.032257 
	C334.668732,367.431366 343.306122,375.830475 352.077454,384.537994 
z"/>
<path fill="#FFD966" opacity="1.000000" stroke="none" 
	d="
M182.599426,144.088715 
	C200.575150,154.752853 210.006302,172.143555 220.636475,188.833084 
	C232.727341,207.815918 245.917160,226.122330 259.195557,244.309326 
	C262.694885,249.102249 268.283569,252.369705 273.007019,256.664154 
	C266.651733,262.655640 260.202271,268.320648 253.408920,274.034943 
	C236.693848,251.367386 220.571747,228.465347 203.866623,205.996765 
	C192.126007,190.205536 178.939529,175.745773 160.282547,167.680786 
	C158.772430,167.027985 157.196411,166.527618 155.269760,165.919952 
	C161.869659,155.937973 171.426697,149.227646 182.599426,144.088715 
z"/>
<path fill="#FDE398" opacity="1.000000" stroke="none" 
	d="
M325.896484,358.721558 
	C324.621704,359.348541 323.204224,359.971466 321.803589,359.935547 
	C296.528809,359.288300 271.953156,355.779816 250.181885,341.551270 
	C245.483902,338.480927 241.070343,334.975372 236.304825,331.442078 
	C251.825592,328.100800 266.657135,322.610657 280.379242,314.001740 
	C295.592407,328.888641 310.677032,343.649719 325.896484,358.721558 
z"/>
<path fill="#FDD765" opacity="1.000000" stroke="none" 
	d="
M289.765625,215.590775 
	C284.198181,211.533966 277.775787,207.784988 273.493256,202.349899 
	C263.328491,189.449509 254.280212,175.675278 244.579132,162.401535 
	C238.704315,154.363190 232.453140,146.599884 226.211823,138.431610 
	C251.138489,141.829178 269.662384,155.034576 281.755676,177.131027 
	C288.196564,188.899628 290.639160,201.723419 289.765625,215.590775 
z"/>
<path fill="#FDD765" opacity="1.000000" stroke="none" 
	d="
M142.062759,190.394913 
	C150.510254,205.141190 158.977829,220.176834 167.095215,235.399231 
	C174.279999,248.872681 181.080658,262.551086 188.032242,276.148529 
	C188.633713,277.325012 189.095474,278.572937 189.573532,280.160156 
	C153.116821,269.572632 130.728485,227.346298 142.062759,190.394913 
z"/>
<path fill="#FDD765" opacity="1.000000" stroke="none" 
	d="
M189.837128,280.740845 
	C189.979797,280.568756 190.302399,280.560272 190.798126,280.739502 
	C190.971237,280.927246 190.492096,281.002747 190.492096,281.002747 
	C190.492096,281.002747 190.017075,280.904419 189.837128,280.740845 
z"/>
</svg>